<?xml version="1.0" encoding="utf-8" standalone="no"?>
<!DOCTYPE svg PUBLIC "-//W3C//DTD SVG 1.1//EN"
  "http://www.w3.org/Graphics/SVG/1.1/DTD/svg11.dtd">
<!-- Created with matplotlib (https://matplotlib.org/) -->
<svg height="288pt" version="1.1" viewBox="0 0 288 288" width="288pt" xmlns="http://www.w3.org/2000/svg" xmlns:xlink="http://www.w3.org/1999/xlink">
 <defs>
  <style type="text/css">
*{stroke-linecap:butt;stroke-linejoin:round;}
  </style>
 </defs>
 <g id="figure_1">
  <g id="patch_1">
   <path d="M 0 288 
L 288 288 
L 288 0 
L 0 0 
z
"/>
  </g>
  <g id="patch_2">
   <path d="M 36 252 
L 259.2 252 
L 259.2 34.56 
L 36 34.56 
z
"/>
  </g>
  <g id="axes_1">
   <g id="Poly3DCollection_1">
    <path clip-path="url(#pa9a696b315)" d="M 118.797314 164.802764 
L 141.074817 171.380335 
L 154.05292 160.06443 
L 132.009025 153.69402 
z
" style="fill:#466a64;fill-opacity:0.8;"/>
    <path clip-path="url(#pa9a696b315)" d="M 141.074817 171.380335 
L 163.773103 178.082145 
L 176.506484 166.55323 
L 154.05292 160.06443 
z
" style="fill:#466a64;fill-opacity:0.8;"/>
    <path clip-path="url(#pa9a696b315)" d="M 105.154468 176.274017 
L 127.669174 183.069022 
L 141.074817 171.380335 
L 118.797314 164.802764 
z
" style="fill:#466a64;fill-opacity:0.8;"/>
    <path clip-path="url(#pa9a696b315)" d="M 163.773103 178.082145 
L 186.904206 184.911748 
L 199.381244 173.16375 
L 176.506484 166.55323 
z
" style="fill:#466a64;fill-opacity:0.8;"/>
    <path clip-path="url(#pa9a696b315)" d="M 127.669174 183.069022 
L 150.616216 189.994506 
L 163.773103 178.082145 
L 141.074817 171.380335 
z
" style="fill:#466a64;fill-opacity:0.8;"/>
    <path clip-path="url(#pa9a696b315)" d="M 186.904206 184.911748 
L 210.480627 191.872833 
L 222.689164 179.899448 
L 199.381244 173.16375 
z
" style="fill:#466a64;fill-opacity:0.8;"/>
    <path clip-path="url(#pa9a696b315)" d="M 91.059032 188.125819 
L 113.814512 195.149219 
L 127.669174 183.069022 
L 105.154468 176.274017 
z
" style="fill:#466a64;fill-opacity:0.8;"/>
    <path clip-path="url(#pa9a696b315)" d="M 150.616216 189.994506 
L 174.008167 197.054265 
L 186.904206 184.911748 
L 163.773103 178.082145 
z
" style="fill:#466a64;fill-opacity:0.8;"/>
    <path clip-path="url(#pa9a696b315)" d="M 113.814512 195.149219 
L 137.014339 202.309765 
L 150.616216 189.994506 
L 127.669174 183.069022 
z
" style="fill:#466a64;fill-opacity:0.8;"/>
    <path clip-path="url(#pa9a696b315)" d="M 174.008167 197.054265 
L 197.858091 204.252242 
L 210.480627 191.872833 
L 186.904206 184.911748 
z
" style="fill:#466a64;fill-opacity:0.8;"/>
    <path clip-path="url(#pa9a696b315)" d="M 76.488107 200.377425 
L 99.487886 207.640932 
L 113.814512 195.149219 
L 91.059032 188.125819 
z
" style="fill:#466a64;fill-opacity:0.8;"/>
    <path clip-path="url(#pa9a696b315)" d="M 137.014339 202.309765 
L 160.671658 209.611514 
L 174.008167 197.054265 
L 150.616216 189.994506 
z
" style="fill:#466a64;fill-opacity:0.8;"/>
    <path clip-path="url(#pa9a696b315)" d="M 99.487886 207.640932 
L 122.944508 215.048714 
L 137.014339 202.309765 
L 113.814512 195.149219 
z
" style="fill:#466a64;fill-opacity:0.8;"/>
    <path clip-path="url(#pa9a696b315)" d="M 160.671658 209.611514 
L 184.800135 217.058685 
L 197.858091 204.252242 
L 174.008167 197.054265 
z
" style="fill:#466a64;fill-opacity:0.8;"/>
    <path clip-path="url(#pa9a696b315)" d="M 122.944508 215.048714 
L 146.871722 222.605112 
L 160.671658 209.611514 
L 137.014339 202.309765 
z
" style="fill:#466a64;fill-opacity:0.8;"/>
    <path clip-path="url(#pa9a696b315)" d="M 146.871722 222.605112 
L 171.283833 230.314645 
L 184.800135 217.058685 
L 160.671658 209.611514 
z
" style="fill:#466a64;fill-opacity:0.8;"/>
   </g>
   <g id="Poly3DCollection_2">
    <path clip-path="url(#pa9a696b315)" d="M 118.797314 164.802764 
L 118.418239 140.841011 
L 131.790892 129.985091 
L 132.009025 153.69402 
z
" style="fill:#466a64;fill-opacity:0.8;"/>
    <path clip-path="url(#pa9a696b315)" d="M 118.418239 140.841011 
L 118.030022 116.301436 
L 131.567583 105.713685 
L 131.790892 129.985091 
z
" style="fill:#466a64;fill-opacity:0.8;"/>
    <path clip-path="url(#pa9a696b315)" d="M 105.154468 176.274017 
L 104.603914 152.055479 
L 118.418239 140.841011 
L 118.797314 164.802764 
z
" style="fill:#466a64;fill-opacity:0.8;"/>
    <path clip-path="url(#pa9a696b315)" d="M 118.030022 116.301436 
L 117.63233 91.162883 
L 131.338913 80.859545 
L 131.567583 105.713685 
z
" style="fill:#466a64;fill-opacity:0.8;"/>
    <path clip-path="url(#pa9a696b315)" d="M 104.603914 152.055479 
L 104.039862 127.243165 
L 118.030022 116.301436 
L 118.418239 140.841011 
z
" style="fill:#466a64;fill-opacity:0.8;"/>
    <path clip-path="url(#pa9a696b315)" d="M 91.059032 188.125819 
L 90.325668 163.646559 
L 104.603914 152.055479 
L 105.154468 176.274017 
z
" style="fill:#466a64;fill-opacity:0.8;"/>
    <path clip-path="url(#pa9a696b315)" d="M 117.63233 91.162883 
L 117.224811 65.403152 
L 131.104686 55.40143 
L 131.338913 80.859545 
z
" style="fill:#466a64;fill-opacity:0.8;"/>
    <path clip-path="url(#pa9a696b315)" d="M 104.039862 127.243165 
L 103.461809 101.814967 
L 117.63233 91.162883 
L 118.030022 116.301436 
z
" style="fill:#466a64;fill-opacity:0.8;"/>
    <path clip-path="url(#pa9a696b315)" d="M 90.325668 163.646559 
L 89.574019 138.556927 
L 104.039862 127.243165 
L 104.603914 152.055479 
z
" style="fill:#466a64;fill-opacity:0.8;"/>
    <path clip-path="url(#pa9a696b315)" d="M 76.488107 200.377425 
L 75.559734 175.633545 
L 90.325668 163.646559 
L 91.059032 188.125819 
z
" style="fill:#466a64;fill-opacity:0.8;"/>
    <path clip-path="url(#pa9a696b315)" d="M 103.461809 101.814967 
L 102.869228 75.747665 
L 117.224811 65.403152 
L 117.63233 91.162883 
z
" style="fill:#466a64;fill-opacity:0.8;"/>
    <path clip-path="url(#pa9a696b315)" d="M 89.574019 138.556927 
L 88.80339 112.833807 
L 103.461809 101.814967 
L 104.039862 127.243165 
z
" style="fill:#466a64;fill-opacity:0.8;"/>
    <path clip-path="url(#pa9a696b315)" d="M 75.559734 175.633545 
L 74.607812 150.262025 
L 89.574019 138.556927 
L 90.325668 163.646559 
z
" style="fill:#466a64;fill-opacity:0.8;"/>
    <path clip-path="url(#pa9a696b315)" d="M 88.80339 112.833807 
L 88.013056 86.452898 
L 102.869228 75.747665 
L 103.461809 101.814967 
z
" style="fill:#466a64;fill-opacity:0.8;"/>
    <path clip-path="url(#pa9a696b315)" d="M 74.607812 150.262025 
L 73.631434 124.238677 
L 88.80339 112.833807 
L 89.574019 138.556927 
z
" style="fill:#466a64;fill-opacity:0.8;"/>
    <path clip-path="url(#pa9a696b315)" d="M 73.631434 124.238677 
L 72.629645 97.538055 
L 88.013056 86.452898 
L 88.80339 112.833807 
z
" style="fill:#466a64;fill-opacity:0.8;"/>
   </g>
   <g id="Poly3DCollection_3">
    <path clip-path="url(#pa9a696b315)" d="M 117.224811 65.403152 
L 140.598645 71.332613 
L 154.221563 61.135099 
L 131.104686 55.40143 
z
" style="fill:#466a64;fill-opacity:0.8;"/>
    <path clip-path="url(#pa9a696b315)" d="M 140.598645 71.332613 
L 164.436222 77.379717 
L 177.789335 66.980603 
L 154.221563 61.135099 
z
" style="fill:#466a64;fill-opacity:0.8;"/>
    <path clip-path="url(#pa9a696b315)" d="M 102.869228 75.747665 
L 126.504162 81.883122 
L 140.598645 71.332613 
L 117.224811 65.403152 
z
" style="fill:#466a64;fill-opacity:0.8;"/>
    <path clip-path="url(#pa9a696b315)" d="M 164.436222 77.379717 
L 188.75148 83.547998 
L 201.821326 72.941248 
L 177.789335 66.980603 
z
" style="fill:#466a64;fill-opacity:0.8;"/>
    <path clip-path="url(#pa9a696b315)" d="M 126.504162 81.883122 
L 150.616216 88.142436 
L 164.436222 77.379717 
L 140.598645 71.332613 
z
" style="fill:#466a64;fill-opacity:0.8;"/>
    <path clip-path="url(#pa9a696b315)" d="M 188.75148 83.547998 
L 213.558922 89.841137 
L 226.331388 79.020468 
L 201.821326 72.941248 
z
" style="fill:#466a64;fill-opacity:0.8;"/>
    <path clip-path="url(#pa9a696b315)" d="M 88.013056 86.452898 
L 111.913196 92.805275 
L 126.504162 81.883122 
L 102.869228 75.747665 
z
" style="fill:#466a64;fill-opacity:0.8;"/>
    <path clip-path="url(#pa9a696b315)" d="M 150.616216 88.142436 
L 175.219985 94.529395 
L 188.75148 83.547998 
L 164.436222 77.379717 
z
" style="fill:#466a64;fill-opacity:0.8;"/>
    <path clip-path="url(#pa9a696b315)" d="M 111.913196 92.805275 
L 136.304395 99.288169 
L 150.616216 88.142436 
L 126.504162 81.883122 
z
" style="fill:#466a64;fill-opacity:0.8;"/>
    <path clip-path="url(#pa9a696b315)" d="M 175.219985 94.529395 
L 200.330665 101.047945 
L 213.558922 89.841137 
L 188.75148 83.547998 
z
" style="fill:#466a64;fill-opacity:0.8;"/>
    <path clip-path="url(#pa9a696b315)" d="M 72.629645 97.538055 
L 96.799044 104.119062 
L 111.913196 92.805275 
L 88.013056 86.452898 
z
" style="fill:#466a64;fill-opacity:0.8;"/>
    <path clip-path="url(#pa9a696b315)" d="M 136.304395 99.288169 
L 161.201945 105.905645 
L 175.219985 94.529395 
L 150.616216 88.142436 
z
" style="fill:#466a64;fill-opacity:0.8;"/>
    <path clip-path="url(#pa9a696b315)" d="M 96.799044 104.119062 
L 121.474031 110.837734 
L 136.304395 99.288169 
L 111.913196 92.805275 
z
" style="fill:#466a64;fill-opacity:0.8;"/>
    <path clip-path="url(#pa9a696b315)" d="M 161.201945 105.905645 
L 186.621777 112.661938 
L 200.330665 101.047945 
L 175.219985 94.529395 
z
" style="fill:#466a64;fill-opacity:0.8;"/>
    <path clip-path="url(#pa9a696b315)" d="M 121.474031 110.837734 
L 146.670636 117.698436 
L 161.201945 105.905645 
L 136.304395 99.288169 
z
" style="fill:#466a64;fill-opacity:0.8;"/>
    <path clip-path="url(#pa9a696b315)" d="M 146.670636 117.698436 
L 172.405577 124.705719 
L 186.621777 112.661938 
L 161.201945 105.905645 
z
" style="fill:#466a64;fill-opacity:0.8;"/>
   </g>
   <g id="Poly3DCollection_4">
    <path clip-path="url(#pa9a696b315)" d="M 210.480627 191.872833 
L 222.689164 179.899448 
L 223.566469 155.600662 
L 211.221624 167.312114 
z
" style="fill:#466a64;fill-opacity:0.8;"/>
    <path clip-path="url(#pa9a696b315)" d="M 211.221624 167.312114 
L 223.566469 155.600662 
L 224.465395 130.703034 
L 211.981194 142.135753 
z
" style="fill:#466a64;fill-opacity:0.8;"/>
    <path clip-path="url(#pa9a696b315)" d="M 197.858091 204.252242 
L 210.480627 191.872833 
L 211.221624 167.312114 
L 198.452887 179.425708 
z
" style="fill:#466a64;fill-opacity:0.8;"/>
    <path clip-path="url(#pa9a696b315)" d="M 211.981194 142.135753 
L 224.465395 130.703034 
L 225.386752 105.184152 
L 212.760046 116.320309 
z
" style="fill:#466a64;fill-opacity:0.8;"/>
    <path clip-path="url(#pa9a696b315)" d="M 198.452887 179.425708 
L 211.221624 167.312114 
L 211.981194 142.135753 
L 199.062851 153.966048 
z
" style="fill:#466a64;fill-opacity:0.8;"/>
    <path clip-path="url(#pa9a696b315)" d="M 184.800135 217.058685 
L 197.858091 204.252242 
L 198.452887 179.425708 
L 185.238043 191.962519 
z
" style="fill:#466a64;fill-opacity:0.8;"/>
    <path clip-path="url(#pa9a696b315)" d="M 212.760046 116.320309 
L 225.386752 105.184152 
L 226.331388 79.020468 
L 213.558922 89.841137 
z
" style="fill:#466a64;fill-opacity:0.8;"/>
    <path clip-path="url(#pa9a696b315)" d="M 199.062851 153.966048 
L 211.981194 142.135753 
L 212.760046 116.320309 
L 199.688571 127.848733 
z
" style="fill:#466a64;fill-opacity:0.8;"/>
    <path clip-path="url(#pa9a696b315)" d="M 185.238043 191.962519 
L 198.452887 179.425708 
L 199.062851 153.966048 
L 185.687317 166.215027 
z
" style="fill:#466a64;fill-opacity:0.8;"/>
    <path clip-path="url(#pa9a696b315)" d="M 171.283833 230.314645 
L 184.800135 217.058685 
L 185.238043 191.962519 
L 171.5533 204.94512 
z
" style="fill:#466a64;fill-opacity:0.8;"/>
    <path clip-path="url(#pa9a696b315)" d="M 199.688571 127.848733 
L 212.760046 116.320309 
L 213.558922 89.841137 
L 200.330665 101.047945 
z
" style="fill:#466a64;fill-opacity:0.8;"/>
    <path clip-path="url(#pa9a696b315)" d="M 185.687317 166.215027 
L 199.062851 153.966048 
L 199.688571 127.848733 
L 186.148404 139.790519 
z
" style="fill:#466a64;fill-opacity:0.8;"/>
    <path clip-path="url(#pa9a696b315)" d="M 171.5533 204.94512 
L 185.238043 191.962519 
L 185.687317 166.215027 
L 171.829886 178.905314 
z
" style="fill:#466a64;fill-opacity:0.8;"/>
    <path clip-path="url(#pa9a696b315)" d="M 186.148404 139.790519 
L 199.688571 127.848733 
L 200.330665 101.047945 
L 186.621777 112.661938 
z
" style="fill:#466a64;fill-opacity:0.8;"/>
    <path clip-path="url(#pa9a696b315)" d="M 171.829886 178.905314 
L 185.687317 166.215027 
L 186.148404 139.790519 
L 172.113878 152.168308 
z
" style="fill:#466a64;fill-opacity:0.8;"/>
    <path clip-path="url(#pa9a696b315)" d="M 172.113878 152.168308 
L 186.148404 139.790519 
L 186.621777 112.661938 
L 172.405577 124.705719 
z
" style="fill:#466a64;fill-opacity:0.8;"/>
   </g>
  </g>
 </g>
 <defs>
  <clipPath id="pa9a696b315">
   <rect height="217.44" width="223.2" x="36" y="34.56"/>
  </clipPath>
 </defs>
</svg>
